PathFileType	4	(X/Y/Z)	 s01c0301.trc
DataRate	CameraRate	NumFrames	NumMarkers	Units	OrigDataRate	OrigDataStartFrame	OrigNumFrames
200	200	6	48	mm	200	1751	2000
Frame#	Time	racr			lacr			c7			jug			rlel			rdr			llel			ldr			s2			lic			ric			lasi			rasi			rpsi			lpsi			rgt			lgt			rth1			rth2			rth3			rth4			rlfc			rsh1			rsh2			rsh3			rsh4			rlmal			rmmal			rcal			rtoe			rmt5			lth1			lth2			lth4			lth3			llfc			lsh1			lsh2			lsh3			lsh4			llmal			lmmal			lcal			ltoe			lmt5			SBIKE			LBIKE			RBIKE			
		X1	Y1	Z1	X2	Y2	Z2	X3	Y3	Z3	X4	Y4	Z4	X5	Y5	Z5	X6	Y6	Z6	X7	Y7	Z7	X8	Y8	Z8	X9	Y9	Z9	X10	Y10	Z10	X11	Y11	Z11	X12	Y12	Z12	X13	Y13	Z13	X14	Y14	Z14	X15	Y15	Z15	X16	Y16	Z16	X17	Y17	Z17	X18	Y18	Z18	X19	Y19	Z19	X20	Y20	Z20	X21	Y21	Z21	X22	Y22	Z22	X23	Y23	Z23	X24	Y24	Z24	X25	Y25	Z25	X26	Y26	Z26	X27	Y27	Z27	X28	Y28	Z28	X29	Y29	Z29	X30	Y30	Z30	X31	Y31	Z31	X32	Y32	Z32	X33	Y33	Z33	X34	Y34	Z34	X35	Y35	Z35	X36	Y36	Z36	X37	Y37	Z37	X38	Y38	Z38	X39	Y39	Z39	X40	Y40	Z40	X41	Y41	Z41	X42	Y42	Z42	X43	Y43	Z43	X44	Y44	Z44	X45	Y45	Z45	X46	Y46	Z46	X47	Y47	Z47	X48	Y48	Z48	
1751	8.7550	699.863462	1383.569369	-90.716928	732.019583	1349.313316	-430.155303	687.308867	1443.781794	-258.973243	682.900301	1278.136522	-256.666554	661.486122	1097.250994	-5.673015	735.639834	849.411776	-65.618933	638.073965	1079.162252	-526.563919	743.213659	849.741750	-404.026107	162.873001	1205.409063	-235.291935	317.317042	1206.208506	-422.766479	342.548915	1195.760226	-105.155031	308.976353	1148.079362	-403.163583	361.657420	1147.648983	-140.691390	201.892844	1238.939073	-187.734992	185.716755	1243.570499	-293.965469	295.506659	1096.941542	-62.769860	214.130744	1064.402186	-437.546617	397.092456	1017.838423	-61.588454	471.415658	981.610247	-71.926100	547.762217	935.965285	-90.575814	494.297955	1027.670530	-95.450405	606.860332	850.328110	-121.375800	508.837246	796.502596	-84.317390	439.655349	748.156503	-83.140885	361.648778	704.876884	-87.586672	463.963766	707.075606	-119.272813	250.580122	647.698083	-97.871914	282.265749	625.042532	-178.487761	198.837954	664.269434	-151.447786	337.431855	430.438516	-134.794057	255.124292	501.479930	-67.206726	225.774375	934.775589	-445.037534	262.649448	853.452010	-445.332558	312.780651	875.095409	-451.316634	292.069519	774.832966	-429.073160	320.432674	661.714585	-415.945962	257.325240	566.641639	-445.692495	234.312187	482.855301	-439.041709	210.008444	401.370706	-424.468142	290.715065	469.858834	-417.046223	174.116328	280.946504	-406.268845	242.765455	168.158738	-341.890117	124.253347	267.603772	-364.557077	370.142110	139.614705	-372.204195	265.228745	160.938156	-438.072392	-223.342538	893.370265	-249.659398	-11.971092	84.731627	-453.846708	-20.103775	81.090376	-53.600064	
1752	8.7600	699.801928	1383.987553	-91.405981	731.809118	1349.801090	-429.982936	686.892981	1444.134914	-259.283715	682.482173	1278.537439	-257.177676	662.135396	1097.606094	-6.314611	735.658979	849.414127	-65.685222	638.537202	1079.470843	-526.203236	743.255609	849.676493	-403.948609	162.493596	1205.516018	-236.043064	316.636899	1205.696146	-422.225870	342.215510	1195.962219	-105.629064	308.697521	1148.006101	-403.186277	361.187580	1147.466059	-140.882632	201.546947	1239.189495	-187.870570	185.255891	1243.705258	-294.172307	295.173475	1096.733202	-63.198769	213.749349	1064.440739	-437.772542	396.212760	1016.803312	-61.450253	470.202010	980.026323	-71.869344	546.188569	933.675120	-90.483184	493.451803	1025.856290	-95.380146	604.376435	847.706495	-121.016349	505.817996	794.603298	-84.330649	436.447910	746.567709	-83.175267	358.352607	703.425478	-87.734573	460.896799	705.178231	-119.051233	247.369613	646.723547	-98.225989	279.240928	623.505626	-178.811186	196.070844	663.984698	-152.070859	331.990980	428.651667	-134.661123	250.343121	500.742483	-67.333387	225.889317	934.919316	-445.374532	262.893171	853.640737	-445.525744	312.945543	875.452457	-451.565549	292.508437	775.173794	-429.089023	321.319496	661.779982	-415.783641	258.376171	566.381423	-445.461616	235.852102	482.520709	-438.642383	211.974695	401.018125	-423.873240	292.381322	469.919269	-416.823252	176.855916	280.368895	-405.439417	240.506312	167.428321	-341.854566	127.410753	266.285082	-363.421953	374.795546	141.442818	-372.610814	269.294122	161.445259	-437.916606	-223.343727	893.372764	-249.692034	-11.984618	84.718706	-453.831356	-20.088446	81.082281	-53.592644	
1753	8.7650	699.657785	1384.232585	-92.032975	731.535720	1350.265947	-429.836985	686.372361	1444.476421	-259.636045	682.152053	1278.973102	-257.465156	662.710747	1097.852772	-6.999556	735.676057	849.327275	-65.728931	639.025374	1079.737399	-525.909240	743.301874	849.616534	-403.909460	162.052659	1205.805631	-235.558065	316.526826	1205.020236	-422.135986	341.815271	1196.130768	-106.004910	308.501643	1147.959304	-403.246569	360.624185	1147.177935	-141.088251	201.059554	1239.398486	-188.028877	184.748074	1243.745055	-294.439661	294.699628	1096.407554	-63.611229	213.632382	1064.408350	-438.083151	395.291150	1015.675177	-61.300680	468.957343	978.287728	-71.820500	544.506181	931.366236	-90.351060	492.559156	1023.943906	-95.272091	601.659175	844.865735	-120.146746	502.867659	792.323327	-84.266205	433.245233	744.559074	-83.160952	355.093663	701.515461	-87.841325	457.715585	702.973763	-118.864408	244.204937	645.578804	-98.465728	276.721599	622.143823	-179.257603	193.314982	663.568859	-152.440618	326.514385	426.772176	-134.885740	245.904329	499.913467	-67.445010	226.324463	935.001365	-445.800537	263.523564	853.830477	-445.814882	313.609754	875.787301	-451.717945	293.362610	775.458801	-429.157881	322.459964	661.921176	-415.544331	259.495349	566.306996	-445.214083	237.412549	482.295917	-438.242188	214.018858	400.743629	-423.404426	294.070805	470.016609	-416.516340	179.498458	279.798302	-404.405743	238.256540	166.801240	-341.812948	130.349958	265.247364	-362.278076	379.129323	143.248559	-372.952193	273.008262	162.081567	-437.757893	-223.350770	893.359122	-249.713179	-11.998167	84.709408	-453.837430	-20.113793	81.095565	-53.597124	
1754	8.7700	699.480686	1384.431033	-92.530833	731.261195	1350.733457	-429.682524	685.860071	1444.837410	-259.957013	681.824886	1279.525263	-257.783660	663.190630	1098.112230	-7.672204	735.692491	849.258833	-65.763398	639.488272	1080.027124	-525.681922	743.325769	849.611002	-403.910980	161.581479	1205.803871	-236.041755	316.393213	1204.084483	-422.077173	341.344757	1196.202435	-106.311806	308.297760	1147.913805	-403.339068	359.991880	1146.778147	-141.200621	200.545898	1239.484853	-188.240692	184.269234	1243.733467	-294.670891	294.143337	1095.991118	-63.950101	213.775071	1064.344075	-438.443799	394.240543	1014.433458	-61.109740	467.584186	976.477635	-71.676413	542.799750	928.958542	-90.265672	491.570590	1021.927823	-95.150369	599.310478	842.035417	-119.971236	499.792785	789.851851	-84.066414	430.153500	742.241574	-83.035253	351.890638	699.252868	-87.914672	454.538969	700.609609	-118.806530	240.198135	645.393915	-96.953320	273.480422	620.427833	-179.512666	190.359344	662.972258	-152.896958	321.969764	425.417920	-134.711744	241.753247	499.133262	-67.525490	227.082619	935.015209	-446.310747	264.606488	853.979556	-446.219655	314.715252	876.076884	-451.767224	294.611014	775.700712	-429.353580	323.749811	662.060991	-415.302200	260.728827	566.325825	-444.970569	238.963538	482.254249	-437.870342	215.900953	400.615597	-422.820821	295.741551	470.187235	-416.211365	181.904495	279.514784	-403.345380	236.017019	166.274921	-341.765550	133.130391	264.311134	-361.175295	383.046673	144.911765	-373.164820	276.523210	162.799066	-437.470462	-223.364985	893.351092	-249.735050	-11.999296	84.680569	-453.806670	-20.106131	81.062482	-53.587477	
1755	8.7750	698.922465	1384.564239	-93.335048	730.971460	1351.089019	-429.549885	685.316455	1445.145005	-260.219594	681.364946	1279.938130	-258.228656	663.606580	1098.310287	-8.341716	735.685745	849.188935	-65.775419	639.877103	1080.201545	-525.562127	743.369947	849.569536	-403.864276	161.089491	1205.665785	-236.781547	316.189577	1203.381293	-422.023645	340.707406	1196.090601	-106.663138	308.143178	1147.866203	-403.424087	359.359214	1146.445929	-141.378161	200.010162	1239.502821	-188.449152	183.762199	1243.684106	-294.936277	293.471734	1095.492337	-64.294780	214.152232	1064.237575	-438.853054	393.128633	1013.030631	-60.974912	466.123087	974.502297	-71.546144	540.997153	926.548814	-90.082897	490.235741	1019.967305	-94.084063	597.132683	839.252414	-119.945238	496.750391	787.142832	-83.681604	427.030298	739.577305	-82.811122	348.695433	696.717974	-87.864938	451.349147	698.146895	-118.816258	236.900056	643.953900	-98.197554	270.065440	618.839278	-179.691467	187.223581	662.286642	-153.224055	318.169385	424.363789	-134.598427	237.954067	498.382640	-67.592612	228.148453	934.993957	-446.853306	265.947693	854.178449	-446.517801	315.989026	876.406018	-451.711059	296.280376	775.906236	-429.581627	325.229382	662.258164	-414.997629	262.063321	566.470108	-444.665544	240.582636	482.305218	-437.422884	217.737320	400.696930	-422.224535	297.407270	470.457402	-415.885111	184.149186	279.360492	-402.552794	233.788630	165.846788	-341.712661	135.702162	263.655045	-360.521010	386.456617	146.487522	-373.158086	279.764152	163.532539	-437.359932	-223.355296	893.316661	-249.719639	-12.024399	84.651323	-453.811009	-20.113686	81.055238	-53.583330	
1756	8.7800	698.548666	1384.815514	-93.822370	730.659837	1351.442949	-429.481107	684.721146	1445.407829	-260.506710	680.950245	1280.238771	-258.592393	663.958129	1098.499763	-8.998037	735.697780	849.107937	-65.780969	640.228259	1080.392612	-525.511955	743.373298	849.595989	-403.908440	159.803871	1206.486328	-232.085263	315.930966	1202.615329	-421.952546	340.083545	1195.902314	-106.913289	308.031067	1147.860940	-403.548777	358.659251	1145.963254	-141.510352	199.303015	1239.449123	-188.699290	183.151094	1243.577917	-295.223629	292.682077	1094.903247	-64.579859	214.693112	1064.074173	-439.312802	391.934594	1011.713484	-60.829575	464.649788	972.598004	-71.365729	539.162569	924.089275	-89.882913	489.122462	1017.923380	-93.809979	594.720183	836.384806	-119.507747	493.786468	784.185918	-83.208811	423.974377	736.697390	-82.551357	345.635348	693.956489	-87.700752	448.107497	695.601490	-118.935898	233.435666	643.099003	-97.025263	266.462399	617.504794	-179.859434	183.887261	661.535279	-153.356397	314.832156	423.671126	-134.513610	234.611577	497.749314	-67.553513	229.559058	934.906741	-447.383087	267.578909	854.146154	-446.943405	317.739852	876.693561	-451.648210	298.172313	776.067728	-429.765138	326.858613	662.480864	-414.654398	263.573356	566.597846	-444.347025	242.246315	482.489356	-437.088807	219.589134	400.835478	-421.801258	299.147494	470.810650	-415.554777	186.292507	279.325446	-402.185321	231.572253	165.514266	-341.654568	138.000309	263.299184	-360.263220	389.538105	147.766213	-373.167235	282.639498	164.111172	-437.316509	-223.341809	893.304213	-249.702351	-12.000262	84.631440	-453.827521	-20.120642	81.033822	-53.592958	
